<svg width="60" height="60" viewBox="0 0 61 60" fill="none" xmlns="http://www.w3.org/2000/svg">
<path d="M30.5069 40.5C27.5963 40.5 24.8049 39.3938 22.7468 37.4246C20.6887 35.4555 19.5325 32.7848 19.5325 30C19.5325 27.2152 20.6887 24.5445 22.7468 22.5754C24.8049 20.6063 27.5963 19.5 30.5069 19.5C33.4175 19.5 36.2089 20.6063 38.267 22.5754C40.3252 24.5445 41.4814 27.2152 41.4814 30C41.4814 32.7848 40.3252 35.4555 38.267 37.4246C36.2089 39.3938 33.4175 40.5 30.5069 40.5ZM53.8042 32.91C53.9296 31.95 54.0236 30.99 54.0236 30C54.0236 29.01 53.9296 28.02 53.8042 27L60.4202 22.11C61.0159 21.66 61.1727 20.85 60.7965 20.19L54.5253 9.81C54.1491 9.15 53.3025 8.88001 52.6126 9.15001L44.8051 12.15C43.1746 10.98 41.4814 9.96001 39.506 9.21001L38.3458 1.26001C38.2821 0.906657 38.0898 0.586286 37.8028 0.35566C37.5158 0.125034 37.1528 -0.000959323 36.778 5.50041e-06H24.2358C23.4519 5.50041e-06 22.7934 0.540006 22.668 1.26001L21.5079 9.21001C19.5325 9.96001 17.8393 10.98 16.2088 12.15L8.40121 9.15001C7.71139 8.88001 6.86479 9.15 6.48852 9.81L0.217393 20.19C-0.19023 20.85 -0.00209552 21.66 0.593661 22.11L7.2097 27C7.08428 28.02 6.99021 29.01 6.99021 30C6.99021 30.99 7.08428 31.95 7.2097 32.91L0.593661 37.89C-0.00209552 38.34 -0.19023 39.15 0.217393 39.81L6.48852 50.19C6.86479 50.85 7.71139 51.09 8.40121 50.85L16.2088 47.82C17.8393 49.02 19.5325 50.04 21.5079 50.79L22.668 58.74C22.7934 59.46 23.4519 60 24.2358 60H36.778C37.5619 60 38.2204 59.46 38.3458 58.74L39.506 50.79C41.4814 50.01 43.1746 49.02 44.8051 47.82L52.6126 50.85C53.3025 51.09 54.1491 50.85 54.5253 50.19L60.7965 39.81C61.1727 39.15 61.0159 38.34 60.4202 37.89L53.8042 32.91Z" fill="white"/>
</svg>
