<svg width="158" height="186" viewBox="0 0 158 186" fill="none" xmlns="http://www.w3.org/2000/svg">
<mask id="mask0_0_1" style="mask-type:luminance" maskUnits="userSpaceOnUse" x="17" y="0" width="35" height="31">
<path d="M26.4791 28.625H42.5208L46.8958 13.3125L39.6041 16.9583L34.5 6.75L29.3958 16.9583L22.1041 13.3125L26.4791 28.625Z" fill="white" stroke="white" stroke-width="4" stroke-linecap="round" stroke-linejoin="round"/>
<path d="M22.1041 13.3125C23.3122 13.3125 24.2916 12.3331 24.2916 11.125C24.2916 9.91688 23.3122 8.9375 22.1041 8.9375C20.896 8.9375 19.9166 9.91688 19.9166 11.125C19.9166 12.3331 20.896 13.3125 22.1041 13.3125Z" fill="white" stroke="white" stroke-width="4"/>
<path d="M34.5 6.75C35.7081 6.75 36.6875 5.77062 36.6875 4.5625C36.6875 3.35438 35.7081 2.375 34.5 2.375C33.2919 2.375 32.3125 3.35438 32.3125 4.5625C32.3125 5.77062 33.2919 6.75 34.5 6.75Z" fill="white" stroke="white" stroke-width="4"/>
<path d="M46.8958 13.3125C48.1039 13.3125 49.0833 12.3331 49.0833 11.125C49.0833 9.91688 48.1039 8.9375 46.8958 8.9375C45.6876 8.9375 44.7083 9.91688 44.7083 11.125C44.7083 12.3331 45.6876 13.3125 46.8958 13.3125Z" fill="white" stroke="white" stroke-width="4"/>
</mask>
<g mask="url(#mask0_0_1)">
<path d="M17 -2H52V33H17V-2Z" fill="white"/>
</g>
<path d="M142.333 145.708C146.4 145.708 150.3 144.014 153.176 140.998C156.051 137.981 157.667 133.89 157.667 129.625V41.1666C157.667 36.901 156.051 32.8102 153.176 29.794C150.3 26.7777 146.4 25.0833 142.333 25.0833H61.5267C64.21 29.9887 65.6667 35.5374 65.6667 41.1666H142.333V129.625H73.3333V145.708M104 65.2916V81.3749H58V185.917H42.6667V137.667H27.3333V185.917H12V121.583H0.5V81.3749C0.5 77.1094 2.11547 73.0185 4.99103 70.0023C7.86659 66.9861 11.7667 65.2916 15.8333 65.2916H104ZM50.3333 41.1666C50.3333 45.4322 48.7179 49.523 45.8423 52.5392C42.9667 55.5554 39.0667 57.2499 35 57.2499C30.9333 57.2499 27.0333 55.5554 24.1577 52.5392C21.2821 49.523 19.6667 45.4322 19.6667 41.1666C19.6667 36.901 21.2821 32.8102 24.1577 29.794C27.0333 26.7777 30.9333 25.0833 35 25.0833C39.0667 25.0833 42.9667 26.7777 45.8423 29.794C48.7179 32.8102 50.3333 36.901 50.3333 41.1666Z" fill="white"/>
</svg>
