<svg width="150" height="151" viewBox="0 0 150 151" fill="none" xmlns="http://www.w3.org/2000/svg">
<path d="M145.797 24.5203L76.7969 0.395256C75.6261 0.0173365 74.374 0.0173365 73.2031 0.395256L4.27503 24.5203H4.13128L3.41253 24.8972H3.34065L2.6219 25.3496C2.6219 25.4249 2.55003 25.4249 2.47815 25.5003L1.90315 26.0281L1.40003 26.6312C1.40003 26.7066 1.32815 26.7066 1.32815 26.782L0.896901 27.4605C0.896901 27.5359 0.896901 27.5359 0.825026 27.6113L0.537526 28.2898L0.321902 29.1191V29.3453C0.251007 29.6407 0.226727 29.9463 0.250027 30.2499V90.5624C0.250027 92.162 0.855828 93.6961 1.93416 94.8272C3.0125 95.9583 4.47503 96.5937 6.00003 96.5937C7.52502 96.5937 8.98756 95.9583 10.0659 94.8272C11.1442 93.6961 11.75 92.162 11.75 90.5624V38.6183L35.9 47.0621C31.363 54.6795 28.971 63.4869 29 72.4687C29.0027 80.6373 30.9824 88.6715 34.7538 95.8184C38.5252 102.965 43.9647 108.991 50.5625 113.33C36.8516 118.771 25.1465 128.646 17.1407 141.527C16.3246 142.88 16.0482 144.516 16.3708 146.081C16.6935 147.646 17.5894 149.016 18.8657 149.895C19.4919 150.33 20.1944 150.631 20.9322 150.779C21.67 150.928 22.4286 150.921 23.164 150.76C23.8994 150.598 24.597 150.286 25.2163 149.84C25.8356 149.393 26.3643 148.823 26.7719 148.161C31.9909 139.728 39.1368 132.798 47.5597 128C55.9826 123.203 65.4153 120.69 75 120.69C84.5848 120.69 94.0175 123.203 102.44 128C110.863 132.798 118.009 139.728 123.228 148.161C123.753 148.997 124.468 149.683 125.309 150.157C126.149 150.63 127.089 150.877 128.044 150.875C129.145 150.887 130.224 150.545 131.134 149.895C132.411 149.016 133.307 147.646 133.629 146.081C133.952 144.516 133.675 142.88 132.859 141.527C124.854 128.646 113.148 118.771 99.4375 113.33C106.035 108.991 111.475 102.965 115.246 95.8184C119.018 88.6715 120.997 80.6373 121 72.4687C121.029 63.4869 118.637 54.6795 114.1 47.0621L145.797 35.9796C146.947 35.583 147.949 34.8156 148.659 33.7867C149.369 32.7579 149.751 31.5201 149.751 30.2499C149.751 28.9798 149.369 27.742 148.659 26.7132C147.949 25.6843 146.947 24.9169 145.797 24.5203ZM109.5 72.4687C109.5 82.0662 105.865 91.2707 99.3952 98.0571C92.9252 104.844 84.15 108.656 75 108.656C65.8501 108.656 57.0748 104.844 50.6048 98.0571C44.1348 91.2707 40.5 82.0662 40.5 72.4687C40.5139 64.7467 42.8534 57.2267 47.1844 50.9824L73.2031 60.1046C74.3703 60.5074 75.6297 60.5074 76.7969 60.1046L102.816 50.9824C107.147 57.2267 109.486 64.7467 109.5 72.4687ZM102.816 38.3167H102.744L75 48.0421L47.1844 38.3167L24.1844 30.2499L75 12.4578L125.816 30.2499L102.816 38.3167Z" fill="white"/>
</svg>
