<svg width="154" height="97" viewBox="0 0 154 97" fill="none" xmlns="http://www.w3.org/2000/svg">
<path d="M8.00004 16.3333H146C150.6 16.3333 153.667 13.1167 153.667 8.29167C153.667 3.46667 150.6 0.25 146 0.25H8.00004C3.40004 0.25 0.333374 3.46667 0.333374 8.29167C0.333374 13.1167 3.40004 16.3333 8.00004 16.3333ZM84.6667 80.6667H8.00004C3.40004 80.6667 0.333374 83.8833 0.333374 88.7083C0.333374 93.5333 3.40004 96.75 8.00004 96.75H84.6667C89.2667 96.75 92.3334 93.5333 92.3334 88.7083C92.3334 83.8833 89.2667 80.6667 84.6667 80.6667ZM146 40.4583H8.00004C3.40004 40.4583 0.333374 43.675 0.333374 48.5C0.333374 53.325 3.40004 56.5417 8.00004 56.5417H146C150.6 56.5417 153.667 53.325 153.667 48.5C153.667 43.675 150.6 40.4583 146 40.4583Z" fill="white"/>
</svg>
