<svg width="158" height="161" viewBox="0 0 158 161" fill="none" xmlns="http://www.w3.org/2000/svg">
<path d="M142.333 120.708C146.4 120.708 150.3 119.014 153.176 115.998C156.051 112.981 157.667 108.89 157.667 104.625V16.1666C157.667 11.901 156.051 7.81016 153.176 4.79395C150.3 1.77774 146.4 0.083252 142.333 0.083252H61.5267C64.21 4.98867 65.6667 10.5374 65.6667 16.1666H142.333V104.625H73.3333V120.708M104 40.2916V56.3749H58V160.917H42.6667V112.667H27.3333V160.917H12V96.5833H0.5V56.3749C0.5 52.1094 2.11547 48.0185 4.99103 45.0023C7.86659 41.9861 11.7667 40.2916 15.8333 40.2916H104ZM50.3333 16.1666C50.3333 20.4322 48.7179 24.523 45.8423 27.5392C42.9667 30.5554 39.0667 32.2499 35 32.2499C30.9333 32.2499 27.0333 30.5554 24.1577 27.5392C21.2821 24.523 19.6667 20.4322 19.6667 16.1666C19.6667 11.901 21.2821 7.81016 24.1577 4.79395C27.0333 1.77774 30.9333 0.083252 35 0.083252C39.0667 0.083252 42.9667 1.77774 45.8423 4.79395C48.7179 7.81016 50.3333 11.901 50.3333 16.1666Z" fill="#FFFFFF"/>
</svg>
